{
	"asset":{
		"generator":"Khronos glTF Blender I/O v4.0.44",
		"version":"2.0"
	},
	"scene":0,
	"scenes":[
		{
			"name":"Scene",
			"nodes":[
				0,
				1,
				2,
				3,
				4
			]
		}
	],
	"nodes":[
		{
			"mesh":0,
			"name":"body"
		},
		{
			"mesh":1,
			"name":"motor",
			"rotation":[
				0.7071068286895752,
				0,
				0,
				0.7071068286895752
			],
			"scale":[
				0.7239062786102295,
				0.7239062786102295,
				0.7239062786102295
			],
			"translation":[
				0.00764909852296114,
				0.009155621752142906,
				4.403975486755371
			]
		},
		{
			"name":"Cylinder",
			"rotation":[
				0.5,
				0.5,
				-0.5,
				0.5
			],
			"scale":[
				0.13927799463272095,
				0.13927799463272095,
				0.13927799463272095
			],
			"translation":[
				-0.0012645721435546875,
				-1.022998332977295,
				2.9872586727142334
			]
		},
		{
			"mesh":2,
			"name":"Cylinder.003",
			"rotation":[
				0.5,
				0.5,
				-0.5,
				0.5
			],
			"scale":[
				0.13927799463272095,
				0.13927799463272095,
				0.13927799463272095
			],
			"translation":[
				-0.18940822780132294,
				-0.737067699432373,
				0.6415879130363464
			]
		},
		{
			"mesh":3,
			"name":"body.001"
		}
	],
	"animations":[
		{
			"channels":[
				{
					"sampler":0,
					"target":{
						"node":1,
						"path":"translation"
					}
				},
				{
					"sampler":1,
					"target":{
						"node":1,
						"path":"rotation"
					}
				},
				{
					"sampler":2,
					"target":{
						"node":1,
						"path":"scale"
					}
				}
			],
			"name":"motorAction",
			"samplers":[
				{
					"input":32,
					"interpolation":"STEP",
					"output":33
				},
				{
					"input":34,
					"interpolation":"LINEAR",
					"output":35
				},
				{
					"input":32,
					"interpolation":"STEP",
					"output":36
				}
			]
		}
	],
	"materials":[
		{
			"doubleSided":true,
			"name":"Material.006",
			"pbrMetallicRoughness":{
				"baseColorFactor":[
					0.06445770710706711,
					0.0710059404373169,
					0.06944085657596588,
					1
				],
				"metallicFactor":0,
				"roughnessFactor":0.5
			}
		},
		{
			"doubleSided":true,
			"name":"Material.005",
			"pbrMetallicRoughness":{
				"baseColorFactor":[
					0.8003076910972595,
					0,
					0.002885356778278947,
					1
				],
				"metallicFactor":0,
				"roughnessFactor":0.5
			}
		},
		{
			"doubleSided":true,
			"name":"Material.002",
			"pbrMetallicRoughness":{
				"baseColorFactor":[
					0.18848726153373718,
					0.802331268787384,
					0.13154207170009613,
					1
				],
				"metallicFactor":0,
				"roughnessFactor":0.5
			}
		},
		{
			"doubleSided":true,
			"name":"Material.003",
			"pbrMetallicRoughness":{
				"baseColorFactor":[
					0,
					0,
					0,
					1
				],
				"metallicFactor":0,
				"roughnessFactor":0.5
			}
		},
		{
			"doubleSided":true,
			"name":"Material.004",
			"pbrMetallicRoughness":{
				"baseColorFactor":[
					0.800000011920929,
					0.800000011920929,
					0.800000011920929,
					1
				],
				"metallicFactor":0,
				"roughnessFactor":0.5
			}
		},
		{
			"doubleSided":true,
			"name":"Material.001",
			"pbrMetallicRoughness":{
				"baseColorFactor":[
					0.0825652927160263,
					1,
					1,
					1
				],
				"metallicFactor":0,
				"roughnessFactor":0.5
			}
		}
	],
	"meshes":[
		{
			"name":"Cube.002",
			"primitives":[
				{
					"attributes":{
						"POSITION":0,
						"NORMAL":1,
						"TEXCOORD_0":2
					},
					"indices":3,
					"material":0
				},
				{
					"attributes":{
						"POSITION":4,
						"NORMAL":5,
						"TEXCOORD_0":6
					},
					"indices":7,
					"material":1
				},
				{
					"attributes":{
						"POSITION":8,
						"NORMAL":9,
						"TEXCOORD_0":10
					},
					"indices":11,
					"material":2
				}
			]
		},
		{
			"name":"Plane.001",
			"primitives":[
				{
					"attributes":{
						"POSITION":12,
						"NORMAL":13,
						"TEXCOORD_0":14
					},
					"indices":15,
					"material":2
				},
				{
					"attributes":{
						"POSITION":16,
						"NORMAL":17,
						"TEXCOORD_0":18
					},
					"indices":19,
					"material":3
				}
			]
		},
		{
			"name":"Cylinder.003",
			"primitives":[
				{
					"attributes":{
						"POSITION":20,
						"NORMAL":21,
						"TEXCOORD_0":22
					},
					"indices":23,
					"material":3
				},
				{
					"attributes":{
						"POSITION":24,
						"NORMAL":25,
						"TEXCOORD_0":26
					},
					"indices":27,
					"material":4
				}
			]
		},
		{
			"name":"Cube.001",
			"primitives":[
				{
					"attributes":{
						"POSITION":28,
						"NORMAL":29,
						"TEXCOORD_0":30
					},
					"indices":31,
					"material":5
				}
			]
		}
	],
	"accessors":[
		{
			"bufferView":0,
			"componentType":5126,
			"count":596,
			"max":[
				3.6874639987945557,
				-0.06651530414819717,
				1.66789710521698
			],
			"min":[
				-3.687464714050293,
				-0.45803162455558777,
				0.05735599249601364
			],
			"type":"VEC3"
		},
		{
			"bufferView":1,
			"componentType":5126,
			"count":596,
			"type":"VEC3"
		},
		{
			"bufferView":2,
			"componentType":5126,
			"count":596,
			"type":"VEC2"
		},
		{
			"bufferView":3,
			"componentType":5123,
			"count":894,
			"type":"SCALAR"
		},
		{
			"bufferView":4,
			"componentType":5126,
			"count":3216,
			"max":[
				3.3345422744750977,
				1.3552422523498535,
				4.279914379119873
			],
			"min":[
				-3.3345422744750977,
				-0.7003384232521057,
				-2.8583812713623047
			],
			"type":"VEC3"
		},
		{
			"bufferView":5,
			"componentType":5126,
			"count":3216,
			"type":"VEC3"
		},
		{
			"bufferView":6,
			"componentType":5126,
			"count":3216,
			"type":"VEC2"
		},
		{
			"bufferView":7,
			"componentType":5123,
			"count":4824,
			"type":"SCALAR"
		},
		{
			"bufferView":8,
			"componentType":5126,
			"count":2364,
			"max":[
				3.6874639987945557,
				1.393048882484436,
				3.5451436042785645
			],
			"min":[
				-3.687464714050293,
				-0.7120377421379089,
				-1.8895691633224487
			],
			"type":"VEC3"
		},
		{
			"bufferView":9,
			"componentType":5126,
			"count":2364,
			"type":"VEC3"
		},
		{
			"bufferView":10,
			"componentType":5126,
			"count":2364,
			"type":"VEC2"
		},
		{
			"bufferView":11,
			"componentType":5123,
			"count":3546,
			"type":"SCALAR"
		},
		{
			"bufferView":12,
			"componentType":5126,
			"count":192,
			"max":[
				0.29543018341064453,
				0.16770626604557037,
				0.29543018341064453
			],
			"min":[
				-0.29543018341064453,
				-0.2430032342672348,
				-0.2954302132129669
			],
			"type":"VEC3"
		},
		{
			"bufferView":13,
			"componentType":5126,
			"count":192,
			"type":"VEC3"
		},
		{
			"bufferView":14,
			"componentType":5126,
			"count":192,
			"type":"VEC2"
		},
		{
			"bufferView":15,
			"componentType":5123,
			"count":288,
			"type":"SCALAR"
		},
		{
			"bufferView":16,
			"componentType":5126,
			"count":1536,
			"max":[
				0.987795889377594,
				0.07427897304296494,
				0.9886936545372009
			],
			"min":[
				-1.0115431547164917,
				0.047860048711299896,
				-1.0106450319290161
			],
			"type":"VEC3"
		},
		{
			"bufferView":17,
			"componentType":5126,
			"count":1536,
			"type":"VEC3"
		},
		{
			"bufferView":18,
			"componentType":5126,
			"count":1536,
			"type":"VEC2"
		},
		{
			"bufferView":19,
			"componentType":5123,
			"count":2304,
			"type":"SCALAR"
		},
		{
			"bufferView":20,
			"componentType":5126,
			"count":2268,
			"max":[
				4.07584285736084,
				2.3996975421905518,
				2.257612705230713
			],
			"min":[
				-17.056076049804688,
				-0.3733551502227783,
				-2.6761772632598877
			],
			"type":"VEC3"
		},
		{
			"bufferView":21,
			"componentType":5126,
			"count":2268,
			"type":"VEC3"
		},
		{
			"bufferView":22,
			"componentType":5126,
			"count":2268,
			"type":"VEC2"
		},
		{
			"bufferView":23,
			"componentType":5123,
			"count":4122,
			"type":"SCALAR"
		},
		{
			"bufferView":24,
			"componentType":5126,
			"count":348,
			"max":[
				3.5223076343536377,
				2.3996975421905518,
				2.065701961517334
			],
			"min":[
				-16.864166259765625,
				-0.3733551502227783,
				-1.5847512483596802
			],
			"type":"VEC3"
		},
		{
			"bufferView":25,
			"componentType":5126,
			"count":348,
			"type":"VEC3"
		},
		{
			"bufferView":26,
			"componentType":5126,
			"count":348,
			"type":"VEC2"
		},
		{
			"bufferView":27,
			"componentType":5123,
			"count":1134,
			"type":"SCALAR"
		},
		{
			"bufferView":28,
			"componentType":5126,
			"count":272,
			"max":[
				0.8321452140808105,
				1.393048882484436,
				3.5451436042785645
			],
			"min":[
				-0.8265166878700256,
				0.47632309794425964,
				2.0836029052734375
			],
			"type":"VEC3"
		},
		{
			"bufferView":29,
			"componentType":5126,
			"count":272,
			"type":"VEC3"
		},
		{
			"bufferView":30,
			"componentType":5126,
			"count":272,
			"type":"VEC2"
		},
		{
			"bufferView":31,
			"componentType":5123,
			"count":408,
			"type":"SCALAR"
		},
		{
			"bufferView":32,
			"componentType":5126,
			"count":2,
			"max":[
				1.6666666666666667
			],
			"min":[
				0.041666666666666664
			],
			"type":"SCALAR"
		},
		{
			"bufferView":33,
			"componentType":5126,
			"count":2,
			"type":"VEC3"
		},
		{
			"bufferView":34,
			"componentType":5126,
			"count":40,
			"max":[
				1.6666666666666667
			],
			"min":[
				0.041666666666666664
			],
			"type":"SCALAR"
		},
		{
			"bufferView":35,
			"componentType":5126,
			"count":40,
			"type":"VEC4"
		},
		{
			"bufferView":36,
			"componentType":5126,
			"count":2,
			"type":"VEC3"
		}
	],
	"bufferViews":[
		{
			"buffer":0,
			"byteLength":7152,
			"byteOffset":0,
			"target":34962
		},
		{
			"buffer":0,
			"byteLength":7152,
			"byteOffset":7152,
			"target":34962
		},
		{
			"buffer":0,
			"byteLength":4768,
			"byteOffset":14304,
			"target":34962
		},
		{
			"buffer":0,
			"byteLength":1788,
			"byteOffset":19072,
			"target":34963
		},
		{
			"buffer":0,
			"byteLength":38592,
			"byteOffset":20860,
			"target":34962
		},
		{
			"buffer":0,
			"byteLength":38592,
			"byteOffset":59452,
			"target":34962
		},
		{
			"buffer":0,
			"byteLength":25728,
			"byteOffset":98044,
			"target":34962
		},
		{
			"buffer":0,
			"byteLength":9648,
			"byteOffset":123772,
			"target":34963
		},
		{
			"buffer":0,
			"byteLength":28368,
			"byteOffset":133420,
			"target":34962
		},
		{
			"buffer":0,
			"byteLength":28368,
			"byteOffset":161788,
			"target":34962
		},
		{
			"buffer":0,
			"byteLength":18912,
			"byteOffset":190156,
			"target":34962
		},
		{
			"buffer":0,
			"byteLength":7092,
			"byteOffset":209068,
			"target":34963
		},
		{
			"buffer":0,
			"byteLength":2304,
			"byteOffset":216160,
			"target":34962
		},
		{
			"buffer":0,
			"byteLength":2304,
			"byteOffset":218464,
			"target":34962
		},
		{
			"buffer":0,
			"byteLength":1536,
			"byteOffset":220768,
			"target":34962
		},
		{
			"buffer":0,
			"byteLength":576,
			"byteOffset":222304,
			"target":34963
		},
		{
			"buffer":0,
			"byteLength":18432,
			"byteOffset":222880,
			"target":34962
		},
		{
			"buffer":0,
			"byteLength":18432,
			"byteOffset":241312,
			"target":34962
		},
		{
			"buffer":0,
			"byteLength":12288,
			"byteOffset":259744,
			"target":34962
		},
		{
			"buffer":0,
			"byteLength":4608,
			"byteOffset":272032,
			"target":34963
		},
		{
			"buffer":0,
			"byteLength":27216,
			"byteOffset":276640,
			"target":34962
		},
		{
			"buffer":0,
			"byteLength":27216,
			"byteOffset":303856,
			"target":34962
		},
		{
			"buffer":0,
			"byteLength":18144,
			"byteOffset":331072,
			"target":34962
		},
		{
			"buffer":0,
			"byteLength":8244,
			"byteOffset":349216,
			"target":34963
		},
		{
			"buffer":0,
			"byteLength":4176,
			"byteOffset":357460,
			"target":34962
		},
		{
			"buffer":0,
			"byteLength":4176,
			"byteOffset":361636,
			"target":34962
		},
		{
			"buffer":0,
			"byteLength":2784,
			"byteOffset":365812,
			"target":34962
		},
		{
			"buffer":0,
			"byteLength":2268,
			"byteOffset":368596,
			"target":34963
		},
		{
			"buffer":0,
			"byteLength":3264,
			"byteOffset":370864,
			"target":34962
		},
		{
			"buffer":0,
			"byteLength":3264,
			"byteOffset":374128,
			"target":34962
		},
		{
			"buffer":0,
			"byteLength":2176,
			"byteOffset":377392,
			"target":34962
		},
		{
			"buffer":0,
			"byteLength":816,
			"byteOffset":379568,
			"target":34963
		},
		{
			"buffer":0,
			"byteLength":8,
			"byteOffset":380384
		},
		{
			"buffer":0,
			"byteLength":24,
			"byteOffset":380392
		},
		{
			"buffer":0,
			"byteLength":160,
			"byteOffset":380416
		},
		{
			"buffer":0,
			"byteLength":640,
			"byteOffset":380576
		},
		{
			"buffer":0,
			"byteLength":24,
			"byteOffset":381216
		}
	],
	"buffers":[
		{
			"byteLength":381240,
			"uri":"plane02.bin"
		}
	]
}
