{
	"asset":{
		"generator":"Khronos glTF Blender I/O v3.6.28",
		"version":"2.0"
	},
	"scene":0,
	"scenes":[
		{
			"name":"Scene",
			"nodes":[
				1,
				3,
				5,
				9,
				10
			]
		}
	],
	"nodes":[
		{
			"name":"c5541ede5fd2450398bdafba20252ae1.obj.cleaner.materialmerger.gle"
		},
		{
			"children":[
				0
			],
			"name":"Sketchfab_model",
			"rotation":[
				-0.7071067690849304,
				0,
				0,
				0.7071068286895752
			],
			"scale":[
				6.139093399047852,
				6.139093399047852,
				6.139093399047852
			]
		},
		{
			"name":"c5541ede5fd2450398bdafba20252ae1.obj.cleaner.materialmerger"
		},
		{
			"children":[
				2
			],
			"name":"Sketchfab_model.001",
			"rotation":[
				-0.7071067690849304,
				0,
				0,
				0.7071068286895752
			],
			"scale":[
				6.139093399047852,
				6.139093399047852,
				6.139093399047852
			]
		},
		{
			"name":"c5541ede5fd2450398bdafba20252ae1.obj.cleaner.materialmerger.001"
		},
		{
			"children":[
				4
			],
			"name":"Sketchfab_model.002",
			"rotation":[
				-0.7071067690849304,
				0,
				0,
				0.7071068286895752
			],
			"scale":[
				6.139093399047852,
				6.139093399047852,
				6.139093399047852
			]
		},
		{
			"mesh":0,
			"name":"Object_2",
			"translation":[
				0,
				0,
				-0.155473530292511
			]
		},
		{
			"mesh":1,
			"name":"Object_2.001",
			"translation":[
				0,
				0,
				-0.155473530292511
			]
		},
		{
			"children":[
				6,
				7
			],
			"name":"c5541ede5fd2450398bdafba20252ae1.obj.cleaner.materialmerger.002"
		},
		{
			"children":[
				8
			],
			"name":"Sketchfab_model.003",
			"rotation":[
				-0.7071067690849304,
				0,
				0,
				0.7071068286895752
			],
			"scale":[
				6.139093399047852,
				6.139093399047852,
				6.139093399047852
			]
		},
		{
			"mesh":2,
			"name":"Text",
			"rotation":[
				0.05191238597035408,
				0.9616751074790955,
				-0.06416243314743042,
				0.26147523522377014
			],
			"translation":[
				-2.3428876399993896,
				1.0126211643218994,
				-4.342151165008545
			]
		}
	],
	"materials":[
		{
			"doubleSided":true,
			"name":"None",
			"pbrMetallicRoughness":{
				"metallicFactor":0,
				"roughnessFactor":0.6000000238418579
			}
		},
		{
			"doubleSided":true,
			"name":"Material",
			"pbrMetallicRoughness":{
				"baseColorFactor":[
					0,
					0,
					0,
					1
				],
				"metallicFactor":0,
				"roughnessFactor":0.5
			}
		},
		{
			"doubleSided":true,
			"name":"Material.001",
			"pbrMetallicRoughness":{
				"baseColorFactor":[
					0,
					0.00824104342609644,
					0.8001416921615601,
					1
				],
				"metallicFactor":0,
				"roughnessFactor":0.5
			}
		},
		{
			"doubleSided":true,
			"name":"Material.002",
			"pbrMetallicRoughness":{
				"baseColorFactor":[
					0.26977959275245667,
					0.8000858426094055,
					0.8000858426094055,
					1
				],
				"metallicFactor":0,
				"roughnessFactor":0.5
			}
		},
		{
			"doubleSided":true,
			"name":"Material.003",
			"pbrMetallicRoughness":{
				"baseColorFactor":[
					0.1434561163187027,
					0.1434561163187027,
					0.1434561163187027,
					1
				],
				"metallicFactor":0,
				"roughnessFactor":0.5
			}
		},
		{
			"doubleSided":true,
			"name":"Material.004",
			"pbrMetallicRoughness":{}
		}
	],
	"meshes":[
		{
			"name":"Object_0.003",
			"primitives":[
				{
					"attributes":{
						"POSITION":0,
						"NORMAL":1,
						"TEXCOORD_0":2
					},
					"indices":3,
					"material":0
				},
				{
					"attributes":{
						"POSITION":4,
						"NORMAL":5,
						"TEXCOORD_0":6
					},
					"indices":7,
					"material":1
				},
				{
					"attributes":{
						"POSITION":8,
						"NORMAL":9,
						"TEXCOORD_0":10
					},
					"indices":11,
					"material":2
				},
				{
					"attributes":{
						"POSITION":12,
						"NORMAL":13,
						"TEXCOORD_0":14
					},
					"indices":15,
					"material":3
				},
				{
					"attributes":{
						"POSITION":16,
						"NORMAL":17,
						"TEXCOORD_0":18
					},
					"indices":19,
					"material":4
				},
				{
					"attributes":{
						"POSITION":20,
						"NORMAL":21,
						"TEXCOORD_0":22
					},
					"indices":23,
					"material":5
				}
			]
		},
		{
			"name":"Object_0.001",
			"primitives":[
				{
					"attributes":{
						"POSITION":24,
						"NORMAL":25,
						"TEXCOORD_0":26
					},
					"indices":27,
					"material":0
				}
			]
		},
		{
			"name":"Text",
			"primitives":[
				{
					"attributes":{
						"POSITION":28,
						"NORMAL":29,
						"TEXCOORD_0":30
					},
					"indices":31,
					"material":1
				}
			]
		}
	],
	"accessors":[
		{
			"bufferView":0,
			"componentType":5126,
			"count":1052,
			"max":[
				0.6157879829406738,
				2.173952102661133,
				0.43225300312042236
			],
			"min":[
				-0.6119199991226196,
				-0.7932170033454895,
				0.11648400127887726
			],
			"type":"VEC3"
		},
		{
			"bufferView":1,
			"componentType":5126,
			"count":1052,
			"type":"VEC3"
		},
		{
			"bufferView":2,
			"componentType":5126,
			"count":1052,
			"type":"VEC2"
		},
		{
			"bufferView":3,
			"componentType":5123,
			"count":4725,
			"type":"SCALAR"
		},
		{
			"bufferView":4,
			"componentType":5126,
			"count":149,
			"max":[
				1.436642050743103,
				2.067323923110962,
				0.646714985370636
			],
			"min":[
				-1.4048889875411987,
				-0.686184823513031,
				0.1587650030851364
			],
			"type":"VEC3"
		},
		{
			"bufferView":5,
			"componentType":5126,
			"count":149,
			"type":"VEC3"
		},
		{
			"bufferView":6,
			"componentType":5126,
			"count":149,
			"type":"VEC2"
		},
		{
			"bufferView":7,
			"componentType":5123,
			"count":450,
			"type":"SCALAR"
		},
		{
			"bufferView":8,
			"componentType":5126,
			"count":133,
			"max":[
				0.16356100142002106,
				1.5322740077972412,
				0.5039269924163818
			],
			"min":[
				-0.16356100142002106,
				-0.4094569981098175,
				0.1587650030851364
			],
			"type":"VEC3"
		},
		{
			"bufferView":9,
			"componentType":5126,
			"count":133,
			"type":"VEC3"
		},
		{
			"bufferView":10,
			"componentType":5126,
			"count":133,
			"type":"VEC2"
		},
		{
			"bufferView":11,
			"componentType":5123,
			"count":486,
			"type":"SCALAR"
		},
		{
			"bufferView":12,
			"componentType":5126,
			"count":502,
			"max":[
				1.4600820541381836,
				2.2258460521698,
				1.0780620574951172
			],
			"min":[
				-1.426419973373413,
				-0.262908011674881,
				0.1863429993391037
			],
			"type":"VEC3"
		},
		{
			"bufferView":13,
			"componentType":5126,
			"count":502,
			"type":"VEC3"
		},
		{
			"bufferView":14,
			"componentType":5126,
			"count":502,
			"type":"VEC2"
		},
		{
			"bufferView":15,
			"componentType":5123,
			"count":2082,
			"type":"SCALAR"
		},
		{
			"bufferView":16,
			"componentType":5126,
			"count":483,
			"max":[
				0.6136369705200195,
				0.5994009971618652,
				0.29572200775146484
			],
			"min":[
				-0.6097699999809265,
				0.21544599533081055,
				0.11863400042057037
			],
			"type":"VEC3"
		},
		{
			"bufferView":17,
			"componentType":5126,
			"count":483,
			"type":"VEC3"
		},
		{
			"bufferView":18,
			"componentType":5126,
			"count":483,
			"type":"VEC2"
		},
		{
			"bufferView":19,
			"componentType":5123,
			"count":1134,
			"type":"SCALAR"
		},
		{
			"bufferView":20,
			"componentType":5126,
			"count":60,
			"max":[
				0.1461009979248047,
				-0.5073457956314087,
				0.47287601232528687
			],
			"min":[
				-0.1461009979248047,
				-0.686184823513031,
				0.32632601261138916
			],
			"type":"VEC3"
		},
		{
			"bufferView":21,
			"componentType":5126,
			"count":60,
			"type":"VEC3"
		},
		{
			"bufferView":22,
			"componentType":5126,
			"count":60,
			"type":"VEC2"
		},
		{
			"bufferView":23,
			"componentType":5123,
			"count":252,
			"type":"SCALAR"
		},
		{
			"bufferView":24,
			"componentType":5126,
			"count":15,
			"max":[
				0.16356100142002106,
				1.2926280498504639,
				0.43123599886894226
			],
			"min":[
				-0.16356100142002106,
				-0.262908011674881,
				0.3223389983177185
			],
			"type":"VEC3"
		},
		{
			"bufferView":25,
			"componentType":5126,
			"count":15,
			"type":"VEC3"
		},
		{
			"bufferView":26,
			"componentType":5126,
			"count":15,
			"type":"VEC2"
		},
		{
			"bufferView":27,
			"componentType":5123,
			"count":33,
			"type":"SCALAR"
		},
		{
			"bufferView":28,
			"componentType":5126,
			"count":830,
			"max":[
				4.470000267028809,
				0,
				0.23000000417232513
			],
			"min":[
				0.07500000298023224,
				0,
				-0.6910000443458557
			],
			"type":"VEC3"
		},
		{
			"bufferView":29,
			"componentType":5126,
			"count":830,
			"type":"VEC3"
		},
		{
			"bufferView":30,
			"componentType":5126,
			"count":830,
			"type":"VEC2"
		},
		{
			"bufferView":31,
			"componentType":5123,
			"count":2466,
			"type":"SCALAR"
		}
	],
	"bufferViews":[
		{
			"buffer":0,
			"byteLength":12624,
			"byteOffset":0,
			"target":34962
		},
		{
			"buffer":0,
			"byteLength":12624,
			"byteOffset":12624,
			"target":34962
		},
		{
			"buffer":0,
			"byteLength":8416,
			"byteOffset":25248,
			"target":34962
		},
		{
			"buffer":0,
			"byteLength":9450,
			"byteOffset":33664,
			"target":34963
		},
		{
			"buffer":0,
			"byteLength":1788,
			"byteOffset":43116,
			"target":34962
		},
		{
			"buffer":0,
			"byteLength":1788,
			"byteOffset":44904,
			"target":34962
		},
		{
			"buffer":0,
			"byteLength":1192,
			"byteOffset":46692,
			"target":34962
		},
		{
			"buffer":0,
			"byteLength":900,
			"byteOffset":47884,
			"target":34963
		},
		{
			"buffer":0,
			"byteLength":1596,
			"byteOffset":48784,
			"target":34962
		},
		{
			"buffer":0,
			"byteLength":1596,
			"byteOffset":50380,
			"target":34962
		},
		{
			"buffer":0,
			"byteLength":1064,
			"byteOffset":51976,
			"target":34962
		},
		{
			"buffer":0,
			"byteLength":972,
			"byteOffset":53040,
			"target":34963
		},
		{
			"buffer":0,
			"byteLength":6024,
			"byteOffset":54012,
			"target":34962
		},
		{
			"buffer":0,
			"byteLength":6024,
			"byteOffset":60036,
			"target":34962
		},
		{
			"buffer":0,
			"byteLength":4016,
			"byteOffset":66060,
			"target":34962
		},
		{
			"buffer":0,
			"byteLength":4164,
			"byteOffset":70076,
			"target":34963
		},
		{
			"buffer":0,
			"byteLength":5796,
			"byteOffset":74240,
			"target":34962
		},
		{
			"buffer":0,
			"byteLength":5796,
			"byteOffset":80036,
			"target":34962
		},
		{
			"buffer":0,
			"byteLength":3864,
			"byteOffset":85832,
			"target":34962
		},
		{
			"buffer":0,
			"byteLength":2268,
			"byteOffset":89696,
			"target":34963
		},
		{
			"buffer":0,
			"byteLength":720,
			"byteOffset":91964,
			"target":34962
		},
		{
			"buffer":0,
			"byteLength":720,
			"byteOffset":92684,
			"target":34962
		},
		{
			"buffer":0,
			"byteLength":480,
			"byteOffset":93404,
			"target":34962
		},
		{
			"buffer":0,
			"byteLength":504,
			"byteOffset":93884,
			"target":34963
		},
		{
			"buffer":0,
			"byteLength":180,
			"byteOffset":94388,
			"target":34962
		},
		{
			"buffer":0,
			"byteLength":180,
			"byteOffset":94568,
			"target":34962
		},
		{
			"buffer":0,
			"byteLength":120,
			"byteOffset":94748,
			"target":34962
		},
		{
			"buffer":0,
			"byteLength":66,
			"byteOffset":94868,
			"target":34963
		},
		{
			"buffer":0,
			"byteLength":9960,
			"byteOffset":94936,
			"target":34962
		},
		{
			"buffer":0,
			"byteLength":9960,
			"byteOffset":104896,
			"target":34962
		},
		{
			"buffer":0,
			"byteLength":6640,
			"byteOffset":114856,
			"target":34962
		},
		{
			"buffer":0,
			"byteLength":4932,
			"byteOffset":121496,
			"target":34963
		}
	],
	"buffers":[
		{
			"byteLength":126428,
			"uri":"plane.bin"
		}
	]
}
